<svg width="30" height="35" viewBox="0 0 30 35" fill="none" xmlns="http://www.w3.org/2000/svg">
<path d="M2.14286 31.0714C2.14286 31.9239 2.4815 32.7415 3.0843 33.3443C3.6871 33.9471 4.50466 34.2857 5.35714 34.2857H24.6429C25.4953 34.2857 26.3129 33.9471 26.9157 33.3443C27.5185 32.7415 27.8571 31.9239 27.8571 31.0714V8.57144H2.14286V31.0714ZM20.3571 13.9286C20.3571 13.6444 20.47 13.3719 20.671 13.171C20.8719 12.97 21.1444 12.8572 21.4286 12.8572C21.7127 12.8572 21.9853 12.97 22.1862 13.171C22.3871 13.3719 22.5 13.6444 22.5 13.9286V28.9286C22.5 29.2127 22.3871 29.4853 22.1862 29.6862C21.9853 29.8871 21.7127 30 21.4286 30C21.1444 30 20.8719 29.8871 20.671 29.6862C20.47 29.4853 20.3571 29.2127 20.3571 28.9286V13.9286ZM13.9286 13.9286C13.9286 13.6444 14.0415 13.3719 14.2424 13.171C14.4433 12.97 14.7158 12.8572 15 12.8572C15.2842 12.8572 15.5567 12.97 15.7576 13.171C15.9585 13.3719 16.0714 13.6444 16.0714 13.9286V28.9286C16.0714 29.2127 15.9585 29.4853 15.7576 29.6862C15.5567 29.8871 15.2842 30 15 30C14.7158 30 14.4433 29.8871 14.2424 29.6862C14.0415 29.4853 13.9286 29.2127 13.9286 28.9286V13.9286ZM7.5 13.9286C7.5 13.6444 7.61288 13.3719 7.81381 13.171C8.01475 12.97 8.28727 12.8572 8.57143 12.8572C8.85559 12.8572 9.12811 12.97 9.32904 13.171C9.52997 13.3719 9.64286 13.6444 9.64286 13.9286V28.9286C9.64286 29.2127 9.52997 29.4853 9.32904 29.6862C9.12811 29.8871 8.85559 30 8.57143 30C8.28727 30 8.01475 29.8871 7.81381 29.6862C7.61288 29.4853 7.5 29.2127 7.5 28.9286V13.9286ZM28.9286 2.14287H20.8929L20.2634 0.890637C20.1301 0.622923 19.9247 0.397728 19.6703 0.240386C19.416 0.0830436 19.1227 -0.000202765 18.8237 1.17407e-05H11.1696C10.8712 -0.00113539 10.5785 0.0818006 10.3251 0.239318C10.0716 0.396835 9.86769 0.622562 9.73661 0.890637L9.10714 2.14287H1.07143C0.787268 2.14287 0.514746 2.25575 0.313814 2.45668C0.112882 2.65761 0 2.93014 0 3.2143L0 5.35715C0 5.64131 0.112882 5.91384 0.313814 6.11477C0.514746 6.3157 0.787268 6.42858 1.07143 6.42858H28.9286C29.2127 6.42858 29.4853 6.3157 29.6862 6.11477C29.8871 5.91384 30 5.64131 30 5.35715V3.2143C30 2.93014 29.8871 2.65761 29.6862 2.45668C29.4853 2.25575 29.2127 2.14287 28.9286 2.14287V2.14287Z" fill="white"/>
</svg>
